<svg xmlns="http://www.w3.org/2000/svg" width="297mm" height="210mm" viewBox="0 0 297 210">
  <rect width="297" height="210" fill="#fff"/>
  <rect x="8" y="8" width="18" height="18" fill="#000"/><rect x="17.00" y="17.00" width="3" height="3" fill="#fff"/><rect x="20.00" y="17.00" width="3" height="3" fill="#fff"/><rect x="11.00" y="20.00" width="3" height="3" fill="#fff"/><rect x="14.00" y="20.00" width="3" height="3" fill="#fff"/><rect x="17.00" y="20.00" width="3" height="3" fill="#fff"/><rect x="20.00" y="20.00" width="3" height="3" fill="#fff"/>
  <rect x="271" y="8" width="18" height="18" fill="#000"/><rect x="283.00" y="14.00" width="3" height="3" fill="#fff"/><rect x="274.00" y="17.00" width="3" height="3" fill="#fff"/><rect x="277.00" y="17.00" width="3" height="3" fill="#fff"/><rect x="277.00" y="20.00" width="3" height="3" fill="#fff"/><rect x="280.00" y="20.00" width="3" height="3" fill="#fff"/><rect x="283.00" y="20.00" width="3" height="3" fill="#fff"/>
  <rect x="8" y="184" width="18" height="18" fill="#000"/><rect x="20.00" y="190.00" width="3" height="3" fill="#fff"/><rect x="11.00" y="193.00" width="3" height="3" fill="#fff"/><rect x="14.00" y="193.00" width="3" height="3" fill="#fff"/><rect x="17.00" y="193.00" width="3" height="3" fill="#fff"/><rect x="20.00" y="193.00" width="3" height="3" fill="#fff"/><rect x="11.00" y="196.00" width="3" height="3" fill="#fff"/>
  <rect x="271" y="184" width="18" height="18" fill="#000"/><rect x="277.00" y="190.00" width="3" height="3" fill="#fff"/><rect x="280.00" y="190.00" width="3" height="3" fill="#fff"/><rect x="277.00" y="193.00" width="3" height="3" fill="#fff"/><rect x="274.00" y="196.00" width="3" height="3" fill="#fff"/><rect x="280.00" y="196.00" width="3" height="3" fill="#fff"/><rect x="283.00" y="196.00" width="3" height="3" fill="#fff"/>
  <path d="M55.50 82.50 L100.50 82.50 L100.50 127.50 L55.50 127.50 Z" fill="#fff" stroke="#8a8a8a" stroke-width="0.6" stroke-linejoin="round"/>
  <path d="M100.50 82.50 L145.50 82.50 L145.50 127.50 L100.50 127.50 Z" fill="#fff" stroke="#8a8a8a" stroke-width="0.6" stroke-linejoin="round"/>
  <path d="M145.50 82.50 L190.50 82.50 L190.50 127.50 L145.50 127.50 Z" fill="#fff" stroke="#8a8a8a" stroke-width="0.6" stroke-linejoin="round"/>
  <path d="M190.50 82.50 L235.50 82.50 L235.50 127.50 L190.50 127.50 Z" fill="#fff" stroke="#8a8a8a" stroke-width="0.6" stroke-linejoin="round"/>
  <path d="M100.50 37.50 L145.50 37.50 L145.50 82.50 L100.50 82.50 Z" fill="#fff" stroke="#8a8a8a" stroke-width="0.6" stroke-linejoin="round"/>
  <path d="M100.50 127.50 L145.50 127.50 L145.50 172.50 L100.50 172.50 Z" fill="#fff" stroke="#8a8a8a" stroke-width="0.6" stroke-linejoin="round"/>
  <path d="M100.50 37.50 L102.00 31.50 L144.00 31.50 L145.50 37.50 Z" fill="#fff" stroke="#8a8a8a" stroke-width="0.6" stroke-linejoin="round"/>
  <path d="M100.50 82.50 L94.50 81.00 L94.50 39.00 L100.50 37.50 Z" fill="#fff" stroke="#8a8a8a" stroke-width="0.6" stroke-linejoin="round"/>
  <path d="M145.50 37.50 L151.50 39.00 L151.50 81.00 L145.50 82.50 Z" fill="#fff" stroke="#8a8a8a" stroke-width="0.6" stroke-linejoin="round"/>
  <path d="M145.50 172.50 L144.00 178.50 L102.00 178.50 L100.50 172.50 Z" fill="#fff" stroke="#8a8a8a" stroke-width="0.6" stroke-linejoin="round"/>
  <path d="M100.50 172.50 L94.50 171.00 L94.50 129.00 L100.50 127.50 Z" fill="#fff" stroke="#8a8a8a" stroke-width="0.6" stroke-linejoin="round"/>
  <path d="M145.50 127.50 L151.50 129.00 L151.50 171.00 L145.50 172.50 Z" fill="#fff" stroke="#8a8a8a" stroke-width="0.6" stroke-linejoin="round"/>
  <path d="M235.50 82.50 L241.50 84.00 L241.50 126.00 L235.50 127.50 Z" fill="#fff" stroke="#8a8a8a" stroke-width="0.6" stroke-linejoin="round"/>
  <path d="M100.50 82.50 L100.50 127.50" stroke="#fff" stroke-width="0.90"/>
  <path d="M100.50 82.50 L100.50 127.50" stroke="#d6d6d6" stroke-width="0.35" stroke-dasharray="1.8 2.2" stroke-linecap="round"/>
  <path d="M145.50 82.50 L145.50 127.50" stroke="#fff" stroke-width="0.90"/>
  <path d="M145.50 82.50 L145.50 127.50" stroke="#d6d6d6" stroke-width="0.35" stroke-dasharray="1.8 2.2" stroke-linecap="round"/>
  <path d="M190.50 82.50 L190.50 127.50" stroke="#fff" stroke-width="0.90"/>
  <path d="M190.50 82.50 L190.50 127.50" stroke="#d6d6d6" stroke-width="0.35" stroke-dasharray="1.8 2.2" stroke-linecap="round"/>
  <path d="M100.50 82.50 L145.50 82.50" stroke="#fff" stroke-width="0.90"/>
  <path d="M100.50 82.50 L145.50 82.50" stroke="#d6d6d6" stroke-width="0.35" stroke-dasharray="1.8 2.2" stroke-linecap="round"/>
  <path d="M100.50 127.50 L145.50 127.50" stroke="#fff" stroke-width="0.90"/>
  <path d="M100.50 127.50 L145.50 127.50" stroke="#d6d6d6" stroke-width="0.35" stroke-dasharray="1.8 2.2" stroke-linecap="round"/>
  <path d="M100.50 37.50 L145.50 37.50" stroke="#fff" stroke-width="0.90"/>
  <path d="M100.50 37.50 L145.50 37.50" stroke="#d6d6d6" stroke-width="0.35" stroke-dasharray="1.8 2.2" stroke-linecap="round"/>
  <path d="M100.50 82.50 L100.50 37.50" stroke="#fff" stroke-width="0.90"/>
  <path d="M100.50 82.50 L100.50 37.50" stroke="#d6d6d6" stroke-width="0.35" stroke-dasharray="1.8 2.2" stroke-linecap="round"/>
  <path d="M145.50 37.50 L145.50 82.50" stroke="#fff" stroke-width="0.90"/>
  <path d="M145.50 37.50 L145.50 82.50" stroke="#d6d6d6" stroke-width="0.35" stroke-dasharray="1.8 2.2" stroke-linecap="round"/>
  <path d="M145.50 172.50 L100.50 172.50" stroke="#fff" stroke-width="0.90"/>
  <path d="M145.50 172.50 L100.50 172.50" stroke="#d6d6d6" stroke-width="0.35" stroke-dasharray="1.8 2.2" stroke-linecap="round"/>
  <path d="M100.50 172.50 L100.50 127.50" stroke="#fff" stroke-width="0.90"/>
  <path d="M100.50 172.50 L100.50 127.50" stroke="#d6d6d6" stroke-width="0.35" stroke-dasharray="1.8 2.2" stroke-linecap="round"/>
  <path d="M145.50 127.50 L145.50 172.50" stroke="#fff" stroke-width="0.90"/>
  <path d="M145.50 127.50 L145.50 172.50" stroke="#d6d6d6" stroke-width="0.35" stroke-dasharray="1.8 2.2" stroke-linecap="round"/>
  <path d="M235.50 82.50 L235.50 127.50" stroke="#fff" stroke-width="0.90"/>
  <path d="M235.50 82.50 L235.50 127.50" stroke="#d6d6d6" stroke-width="0.35" stroke-dasharray="1.8 2.2" stroke-linecap="round"/>
  <text x="123.00" y="34.50" text-anchor="middle" dominant-baseline="central" font-family="Segoe UI, sans-serif" font-size="2.6" fill="#d6d6d6" transform="rotate(-90 123.00 34.50)">клей</text>
  <text x="97.50" y="60.00" text-anchor="middle" dominant-baseline="central" font-family="Segoe UI, sans-serif" font-size="2.6" fill="#d6d6d6">клей</text>
  <text x="148.50" y="60.00" text-anchor="middle" dominant-baseline="central" font-family="Segoe UI, sans-serif" font-size="2.6" fill="#d6d6d6">клей</text>
  <text x="123.00" y="175.50" text-anchor="middle" dominant-baseline="central" font-family="Segoe UI, sans-serif" font-size="2.6" fill="#d6d6d6" transform="rotate(-90 123.00 175.50)">клей</text>
  <text x="97.50" y="150.00" text-anchor="middle" dominant-baseline="central" font-family="Segoe UI, sans-serif" font-size="2.6" fill="#d6d6d6">клей</text>
  <text x="148.50" y="150.00" text-anchor="middle" dominant-baseline="central" font-family="Segoe UI, sans-serif" font-size="2.6" fill="#d6d6d6">клей</text>
  <text x="238.50" y="105.00" text-anchor="middle" dominant-baseline="central" font-family="Segoe UI, sans-serif" font-size="2.6" fill="#d6d6d6">клей</text>
  <text x="148.5" y="21" text-anchor="middle" font-family="Segoe UI, sans-serif" font-size="4.2" fill="#666">Вырежи по сплошной линии, согни по пунктиру, склей за язычки — и кубик готов</text>
  <text x="148.5" y="197" text-anchor="middle" font-family="Segoe UI, sans-serif" font-size="7" font-weight="600" fill="#444">Кубик</text>
</svg>
